Coordinates

Units are S.I. units (second, meters, Newtons, ...)
If the header above contains a line with 'inDegrees', this indicates whether rotational values are in degrees (yes) or radians (no).

inDegrees=no
nColumns=22
nRows=19
DataType=double
version=3
OpenSimVersion=4.6-2026-03-31-d6972f9e6
endheader
time	/jointset/ground_pelvis/pelvis_tilt/value	/jointset/ground_pelvis/pelvis_list/value	/jointset/ground_pelvis/pelvis_rotation/value	/jointset/ground_pelvis/pelvis_tx/value	/jointset/ground_pelvis/pelvis_ty/value	/jointset/ground_pelvis/pelvis_tz/value	/jointset/hip_r/hip_flexion_r/value	/jointset/hip_r/hip_adduction_r/value	/jointset/hip_r/hip_rotation_r/value	/jointset/walker_knee_r/knee_angle_r/value	/jointset/patellofemoral_r/knee_angle_r_beta/value	/jointset/ankle_r/ankle_angle_r/value	/jointset/hip_l/hip_flexion_l/value	/jointset/hip_l/hip_adduction_l/value	/jointset/hip_l/hip_rotation_l/value	/jointset/walker_knee_l/knee_angle_l/value	/jointset/patellofemoral_l/knee_angle_l_beta/value	/jointset/ankle_l/ankle_angle_l/value	/jointset/back/lumbar_extension/value	/jointset/back/lumbar_bending/value	/jointset/back/lumbar_rotation/value
45.395	-0.311925924857513	0.04201194012743808	3.117785424779296	-3.367847372392948	0.8555863580778316	2.495267156898157	0.5675335424010858	-0.244938754236462	-0.05086445736503355	1.537445552573629	1.537445551716876	0.305422197525092	0.5987773470790688	-0.3254400968181583	0.04079140275301845	1.539844903837018	1.539844904252246	0.4444295856126941	-1.292705447569408	-0.01176358780653641	0.06999611603335222
45.4	-0.3073022129053369	0.04364038237207826	3.117729298380326	-3.3665950289626	0.85196806277684	2.495157205030972	0.5781424235977713	-0.2439834925483788	-0.05071580466004738	1.545582687026055	1.545582686124284	0.3074383766846392	0.6112914167203315	-0.3285112478992641	0.04296137720699773	1.548825892956303	1.54882589344561	0.4461222149695863	-1.292282677934599	-0.01144061993499556	0.07136755189314943
45.405	-0.3027441344403362	0.04525644777513476	3.117675706321689	-3.365357783059064	0.8483572791755994	2.495039849698811	0.588643282171323	-0.2430796549372902	-0.0506275690189924	1.553666724256265	1.55366672331019	0.3094138059213594	0.6237187128171835	-0.3315677453862214	0.04515715876118315	1.557727034847532	1.557727035401105	0.4477739951738903	-1.291847765165707	-0.01112094265192843	0.07268484554892975
45.41	-0.2982536143088475	0.04685522159187677	3.11762432537711	-3.364135727181944	0.8447544228541808	2.494915519818941	0.5990357923232091	-0.2422326865962071	-0.05059656054132049	1.561699739493803	1.561699738506301	0.3113500966620277	0.6360561015269853	-0.3346043389794059	0.04737466103916119	1.566549367932345	1.566549368540324	0.4493834883142606	-1.291401388736953	-0.01080595270242231	0.07394394174532665
45.415	-0.2938326271483997	0.04843196904703872	3.117574747893463	-3.362928916501259	0.8411598999464253	2.494784641498773	0.6093196633984872	-0.2414471552564456	-0.05061870920251448	1.569683730545715	1.569683729521909	0.313249132597024	0.6483003390074338	-0.3376158101992462	0.04961000287012535	1.575293949841117	1.575293950493812	0.4509494741358488	-1.290944554568509	-0.01049712955188861	0.07514152850385325
45.42	-0.289483134349228	0.04998226451131033	3.117526502699206	-3.36173737112058	0.837574102160684	2.494647635261354	0.6194946656803886	-0.2407266045901617	-0.05068911455489936	1.577620584158398	1.577620583105569	0.315113039653123	0.6604481927489506	-0.3405970808008977	0.05185963201396992	1.583961874316804	1.583961875004959	0.452470957530441	-1.290478540179679	-0.01019596089628857	0.07627516164504541
45.425	-0.2852069620224371	0.05150212508408776	3.117479083336711	-3.360561078729209	0.8339973960517459	2.494504913932991	0.6295607198175854	-0.2400734194513822	-0.050802124870968	1.58551204763272	1.58551204656008	0.3169441490220771	0.6724966437180213	-0.3435433176051587	0.05412046990875467	1.592554297294571	1.592554298009608	0.4539471608207973	-1.290004775982972	-0.009903855788629033	0.07734338042477656
45.43	-0.2810056319795245	0.05298814348580057	3.117431979654691	-3.359399997479875	0.8304301074960568	2.494356880862171	0.6395180389836005	-0.239488706789842	-0.05095144210761628	1.593359706950766	1.593359705869183	0.3187449529368375	0.6844431518890156	-0.3464500313443044	0.0563900695283078	1.60107247166735	1.601072472401561	0.4553775012810859	-1.289524673441816	-0.009622052290140772	0.07834580948240759
45.435	-0.2768801957340508	0.05443760582589878	3.117384706116872	-3.358254058718903	0.8268725067480132	2.494203927969379	0.6493672706275565	-0.2389722012367304	-0.05113023574106838	1.601164967917043	1.601164966838742	0.3205180560932475	0.6962859145727547	-0.3493131635558262	0.05866675883348933	1.609517778119367	1.609517778866055	0.456761560737581	-1.289039450645684	-0.009351533971362042	0.07928323560994688
45.44	-0.27283111880843	0.05584857989998648	3.117336821101083	-3.357123169241888	0.823324799122104	2.494046433422892	0.6591095875385123	-0.2385222055853192	-0.05133124989877842	1.60892903658405	1.608929035522331	0.3222661275067363	0.7080240503635639	-0.3521291552035887	0.06094974244853761	1.617891739046444	1.617891739800059	0.4580990567467887	-1.288550004053742	-0.009092967865254001	0.08015764790886384
45.445	-0.2688582068145961	0.05721997342922908	3.117287936883959	-3.356007213046642	0.8197871200477614	2.493884759342047	0.6687467393722701	-0.2381355688947479	-0.0515469057188929	1.616652900940833	1.616652899909822	0.3239918530674195	0.7196577192625245	-0.3548949958130609	0.06323916229116761	1.626196018143369	1.626196018899607	0.4593898160425284	-1.288056818611856	-0.008846663055071178	0.08097224070494681
45.45	-0.2649605310576134	0.05855157154766984	3.11723772387521	-3.354906052669186	0.8162595296325018	2.493719250167161	0.6782811123701638	-0.2378076976870623	-0.05176941038126989	1.624337318917146	1.62433731793159	0.3256978844435099	0.7311882371451324	-0.3576082558170209	0.06553613753485925	1.634432417829617	1.634432418585483	0.4606337427083358	-1.28755987407683	-0.008612540193706223	0.08173138702185226
45.455	-0.2611363541293005	0.05984405453305858	3.117185909960729	-3.353819529970288	0.8127420069165755	2.49355023179519	0.687715797128098	-0.2375325981434607	-0.05199087078332463	1.631982812749888	1.631982811824992	0.3273867847029079	0.7426181835971808	-0.3602671026638125	0.06784278596992573	1.642602875165076	1.642602875918875	0.4618307816426326	-1.287058549163381	-0.008390111105915667	0.0824405849118158
45.46	-0.2573831153185074	0.06109898234693298	3.117132271524814	-3.352747466121583	0.8092344505925367	2.493378010938839	0.6970545984875079	-0.2373029560220168	-0.05220339421780731	1.639589664414725	1.639589663566007	0.3290609814348414	0.7539514192529392	-0.3628702959210228	0.07016220034642098	1.650709441480874	1.650709442232198	0.4629808945527149	-1.286551585583004	-0.00817848143937722	0.08310636761221105
45.465	-0.2536975264069375	0.06231873360694096	3.117076614024348	-3.351689660799595	0.8057366915682318	2.49320287423844	0.7063019317640151	-0.2371102629650964	-0.05239916443025906	1.647157909433316	1.647157908676429	0.3307227393338207	0.7651929421077787	-0.3654171564234583	0.07249835685235768	1.658754234858229	1.658754235607942	0.4640840667690919	-1.286037163721141	-0.007976387652276234	0.0837361687303458
45.47	-0.2500757770343683	0.06350639986462114	3.117018744400396	-3.35064589080318	0.8022485169997217	2.493025087106918	0.7154626057169221	-0.2369449893800995	-0.05257049509942888	1.654687330869073	1.654687330219551	0.3323741532071192	0.7763485851166203	-0.3679075108052809	0.07485595616245748	1.66673936806889	1.66673936881912	0.4651403462243201	-1.285513089030541	-0.007782266981055308	0.08433814481991349
45.475	-0.246513802330087	0.06466564850372897	3.116958441993172	-3.349615908273175	0.7987697006506301	2.492844892781426	0.7245415428472017	-0.2367967938187688	-0.05270987010029672	1.662177456472654	1.662177455945541	0.3340171502709714	0.7874246230350435	-0.3703416173099899	0.07724021990760384	1.674666863228111	1.674666863982185	0.4661498972786584	-1.284977041674279	-0.007594346124148836	0.08492096875558676
45.48	-0.2430075220338776	0.06580057707760179	3.116895438539898	-3.348599438797907	0.7953000297034348	2.492662512599192	0.7335435348639817	-0.236654753115693	-0.05280998862895133	1.66962756401229	1.669627563621625	0.3356534850028444	0.7984274170021345	-0.3727200779935775	0.07965668976638271	1.682538572733884	1.682538573496145	0.467113041174531	-1.284426797780773	-0.007410723506734705	0.08549361468252085
45.485	-0.2395529667049442	0.06691558095639251	3.116829415337709	-3.347596179871039	0.791839318595439	2.492478148369306	0.7424731245607556	-0.2365075982309058	-0.0528638336673938	1.677036700419311	1.677036700177492	0.3372847144063988	0.809363215926562	-0.3750437417656964	0.08211107631593306	1.690356126607863	1.690356127383365	0.4680302606526597	-1.283860336402283	-0.007229423521190167	0.08606515424934699
